<svg xmlns="http://www.w3.org/2000/svg" viewBox="40 127 220 46">
    <g id="6efaa43b-5fe8-45d4-87d8-99df3b4a7d08" fill="#000000"
       transform="matrix(3.4266629219055176,0,0,3.4266629219055176,121.93974832513872,126.32175932562035)">
        <path d="M9.18 1.40L9.18 1.40Q9.35 1.40 9.45 1.51L9.45 1.51L9.45 1.51Q9.55 1.62 9.55 1.81L9.55 1.81L9.55 1.81Q9.55 1.96 9.49 2.09L9.49 2.09L5.31 12.07L5.31 12.07Q5.18 12.33 4.93 12.33L4.93 12.33L4.93 12.33Q4.79 12.33 4.70 12.27L4.70 12.27L4.70 12.27Q4.61 12.21 4.55 12.07L4.55 12.07L0.35 2.09L0.35 2.09Q0.28 1.90 0.28 1.79L0.28 1.79L0.28 1.79Q0.28 1.61 0.41 1.50L0.41 1.50L0.41 1.50Q0.53 1.40 0.71 1.40L0.71 1.40L0.71 1.40Q0.85 1.40 0.95 1.47L0.95 1.47L0.95 1.47Q1.05 1.54 1.12 1.69L1.12 1.69L4.94 10.85L8.72 1.75L8.72 1.75Q8.79 1.57 8.90 1.48L8.90 1.48L8.90 1.48Q9.02 1.40 9.18 1.40L9.18 1.40ZM14.27 4.61L14.27 4.61Q15.29 4.61 16.09 5.09L16.09 5.09L16.09 5.09Q16.90 5.57 17.35 6.43L17.35 6.43L17.35 6.43Q17.79 7.28 17.79 8.37L17.79 8.37L17.79 8.37Q17.79 8.55 17.68 8.66L17.68 8.66L17.68 8.66Q17.57 8.76 17.39 8.76L17.39 8.76L11.52 8.76L11.52 8.76Q11.56 9.59 11.96 10.24L11.96 10.24L11.96 10.24Q12.35 10.89 13.01 11.26L13.01 11.26L13.01 11.26Q13.66 11.62 14.48 11.62L14.48 11.62L14.48 11.62Q15.02 11.62 15.57 11.43L15.57 11.43L15.57 11.43Q16.13 11.24 16.45 10.93L16.45 10.93L16.45 10.93Q16.59 10.82 16.74 10.82L16.74 10.82L16.74 10.82Q16.90 10.82 17.00 10.91L17.00 10.91L17.00 10.91Q17.15 11.03 17.15 11.20L17.15 11.20L17.15 11.20Q17.15 11.34 17.02 11.47L17.02 11.47L17.02 11.47Q16.58 11.87 15.86 12.14L15.86 12.14L15.86 12.14Q15.13 12.40 14.48 12.40L14.48 12.40L14.48 12.40Q13.37 12.40 12.51 11.91L12.51 11.91L12.51 11.91Q11.65 11.41 11.16 10.52L11.16 10.52L11.16 10.52Q10.67 9.63 10.67 8.51L10.67 8.51L10.67 8.51Q10.67 7.38 11.12 6.49L11.12 6.49L11.12 6.49Q11.58 5.60 12.40 5.10L12.40 5.10L12.40 5.10Q13.22 4.61 14.27 4.61L14.27 4.61ZM14.27 5.39L14.27 5.39Q13.17 5.39 12.42 6.12L12.42 6.12L12.42 6.12Q11.68 6.85 11.54 8.04L11.54 8.04L16.98 8.04L16.98 8.04Q16.88 6.85 16.14 6.12L16.14 6.12L16.14 6.12Q15.40 5.39 14.27 5.39L14.27 5.39ZM23.11 4.58L23.11 4.58Q24.14 4.58 24.94 5.00L24.94 5.00L24.94 5.00Q25.75 5.42 26.20 6.22L26.20 6.22L26.20 6.22Q26.66 7.03 26.66 8.15L26.66 8.15L26.66 11.91L26.66 11.91Q26.66 12.10 26.54 12.21L26.54 12.21L26.54 12.21Q26.42 12.33 26.24 12.33L26.24 12.33L26.24 12.33Q26.05 12.33 25.93 12.21L25.93 12.21L25.93 12.21Q25.82 12.10 25.82 11.91L25.82 11.91L25.82 8.15L25.82 8.15Q25.82 6.82 25.07 6.12L25.07 6.12L25.07 6.12Q24.32 5.42 23.11 5.42L23.11 5.42L23.11 5.42Q22.37 5.42 21.76 5.70L21.76 5.70L21.76 5.70Q21.15 5.99 20.80 6.50L20.80 6.50L20.80 6.50Q20.45 7.01 20.45 7.63L20.45 7.63L20.45 11.91L20.45 11.91Q20.45 12.10 20.34 12.21L20.34 12.21L20.34 12.21Q20.23 12.33 20.03 12.33L20.03 12.33L20.03 12.33Q19.85 12.33 19.73 12.21L19.73 12.21L19.73 12.21Q19.61 12.10 19.61 11.91L19.61 11.91L19.61 5.10L19.61 5.10Q19.61 4.90 19.73 4.79L19.73 4.79L19.73 4.79Q19.85 4.68 20.03 4.68L20.03 4.68L20.03 4.68Q20.23 4.68 20.34 4.79L20.34 4.79L20.34 4.79Q20.45 4.90 20.45 5.10L20.45 5.10L20.45 5.82L20.45 5.82Q20.93 5.24 21.62 4.91L21.62 4.91L21.62 4.91Q22.30 4.58 23.11 4.58L23.11 4.58ZM32.49 11.48L32.49 11.48Q32.69 11.48 32.81 11.60L32.81 11.60L32.81 11.60Q32.93 11.72 32.93 11.91L32.93 11.91L32.93 11.91Q32.93 12.10 32.81 12.21L32.81 12.21L32.81 12.21Q32.69 12.33 32.49 12.33L32.49 12.33L32.17 12.33L32.17 12.33Q31.40 12.33 30.80 11.98L30.80 11.98L30.80 11.98Q30.20 11.63 29.86 11.03L29.86 11.03L29.86 11.03Q29.53 10.42 29.53 9.65L29.53 9.65L29.53 5.71L28.43 5.71L28.43 5.71Q28.27 5.71 28.16 5.61L28.16 5.61L28.16 5.61Q28.06 5.50 28.06 5.33L28.06 5.33L28.06 5.33Q28.06 5.17 28.16 5.06L28.16 5.06L28.16 5.06Q28.27 4.96 28.43 4.96L28.43 4.96L29.53 4.96L29.53 2.67L29.53 2.67Q29.53 2.48 29.64 2.36L29.64 2.36L29.64 2.36Q29.76 2.24 29.95 2.24L29.95 2.24L29.95 2.24Q30.14 2.24 30.26 2.36L30.26 2.36L30.26 2.36Q30.38 2.48 30.38 2.67L30.38 2.67L30.38 4.96L32.23 4.96L32.23 4.96Q32.40 4.96 32.50 5.06L32.50 5.06L32.50 5.06Q32.61 5.17 32.61 5.33L32.61 5.33L32.61 5.33Q32.61 5.50 32.50 5.61L32.50 5.61L32.50 5.61Q32.40 5.71 32.23 5.71L32.23 5.71L30.38 5.71L30.38 9.65L30.38 9.65Q30.38 10.46 30.88 10.97L30.88 10.97L30.88 10.97Q31.39 11.48 32.19 11.48L32.19 11.48L32.49 11.48ZM37.30 4.59L37.30 4.59Q39.06 4.59 39.97 5.85L39.97 5.85L39.97 5.85Q40.05 5.95 40.05 6.09L40.05 6.09L40.05 6.09Q40.05 6.29 39.83 6.41L39.83 6.41L39.83 6.41Q39.69 6.47 39.62 6.47L39.62 6.47L39.62 6.47Q39.41 6.47 39.27 6.29L39.27 6.29L39.27 6.29Q38.56 5.38 37.27 5.38L37.27 5.38L37.27 5.38Q36.41 5.38 35.91 5.75L35.91 5.75L35.91 5.75Q35.41 6.12 35.41 6.66L35.41 6.66L35.41 6.66Q35.41 7.22 35.89 7.56L35.89 7.56L35.89 7.56Q36.37 7.90 37.51 8.06L37.51 8.06L37.51 8.06Q38.99 8.27 39.64 8.86L39.64 8.86L39.64 8.86Q40.29 9.44 40.29 10.26L40.29 10.26L40.29 10.26Q40.29 10.91 39.88 11.40L39.88 11.40L39.88 11.40Q39.47 11.89 38.78 12.15L38.78 12.15L38.78 12.15Q38.09 12.42 37.28 12.42L37.28 12.42L37.28 12.42Q36.47 12.42 35.70 12.13L35.70 12.13L35.70 12.13Q34.93 11.84 34.43 11.26L34.43 11.26L34.43 11.26Q34.33 11.14 34.33 11.00L34.33 11.00L34.33 11.00Q34.33 10.81 34.51 10.68L34.51 10.68L34.51 10.68Q34.59 10.61 34.75 10.61L34.75 10.61L34.75 10.61Q34.94 10.61 35.07 10.77L35.07 10.77L35.07 10.77Q35.77 11.62 37.32 11.62L37.32 11.62L37.32 11.62Q38.43 11.62 38.95 11.23L38.95 11.23L38.95 11.23Q39.48 10.84 39.48 10.22L39.48 10.22L39.48 10.22Q39.48 9.11 37.34 8.81L37.34 8.81L37.34 8.81Q35.98 8.61 35.29 8.06L35.29 8.06L35.29 8.06Q34.59 7.52 34.59 6.75L34.59 6.75L34.59 6.75Q34.59 5.73 35.34 5.16L35.34 5.16L35.34 5.16Q36.09 4.59 37.30 4.59L37.30 4.59Z"></path>
    </g>
    <defs>
        <linearGradient gradientTransform="rotate(25)"
                        id="af14b08c-b576-4346-9c48-411ad904cda0" x1="0%" y1="0%" x2="100%" y2="0%">
            <stop offset="0%" stop-color="#A7CDDC" stop-opacity="1"></stop>
            <stop offset="100%" stop-color="#6F7D8D" stop-opacity="1"></stop>
        </linearGradient>
    </defs>
    <g id="684d119f-3533-46c2-9187-6dd8e07ae03d" stroke="none"
       fill="url(#af14b08c-b576-4346-9c48-411ad904cda0)"
       transform="matrix(0.8514376878738403,0,0,0.8514376878738403,34.39797403679082,108.53327999551891)">
        <path d="M11.995 55.024H7.947a1.366 1.366 0 1 1 0-2.732h4.047a1.366 1.366 0 0 1 .001 2.732zM25.137 49.111H21.38a1.365 1.365 0 1 1 0-2.732h3.757a1.365 1.365 0 1 1 0 2.732zM41.362 49.111H29.355a1.365 1.365 0 1 1 0-2.732h12.007a1.365 1.365 0 1 1 0 2.732zM55.499 49.111H45.314a1.367 1.367 0 0 1 0-2.732h10.185c7.776 0 14.103-6.328 14.103-14.104s-6.326-14.104-14.103-14.104c-7.778 0-14.105 6.327-14.105 14.104a1.365 1.365 0 1 1-2.732 0c0-9.284 7.554-16.836 16.837-16.836 9.282 0 16.835 7.552 16.835 16.836 0 9.285-7.553 16.836-16.835 16.836zM37.104 61.137h-3.611a1.365 1.365 0 1 1 0-2.732h3.611a1.365 1.365 0 1 1 0 2.732zM49.164 61.137H41.42a1.365 1.365 0 1 1 0-2.732h7.744a1.367 1.367 0 1 1 0 2.732zM57 81.965c-6.396 0-11.601-5.284-11.601-11.78a1.365 1.365 0 1 1 2.732 0c0 4.989 3.979 9.048 8.869 9.048s8.869-4.059 8.869-9.048-3.978-9.048-8.869-9.048h-3.63a1.365 1.365 0 1 1 0-2.732H57c6.396 0 11.601 5.285 11.601 11.78 0 6.496-5.205 11.78-11.601 11.78zM66.436 55.024H51.104c-.756 0-1.366-.611-1.366-1.366s.61-1.366 1.366-1.366h15.332a1.365 1.365 0 1 1 0 2.732zM46.765 55.024H30.928a1.367 1.367 0 0 1 0-2.732h15.837a1.365 1.365 0 1 1 0 2.732zM26.41 55.024H16.351a1.365 1.365 0 1 1 0-2.732H26.41a1.365 1.365 0 1 1 0 2.732z"></path>
        <path d="M59.698 41.219a1.364 1.364 0 0 1-1.365-1.366 15.1 15.1 0 0 1 7.11-12.854 1.367 1.367 0 0 1 1.454 2.314 12.38 12.38 0 0 0-5.833 10.541c0 .754-.61 1.365-1.366 1.365zM62.945 73.974c-.467 0-.92-.239-1.176-.669a13.903 13.903 0 0 1-1.938-7.088 1.365 1.365 0 1 1 2.731 0c0 2.01.538 3.978 1.558 5.692a1.368 1.368 0 0 1-1.175 2.065zM79.747 53.665c5.257-2.386 8.928-7.672 8.928-13.812 0-8.366-6.805-15.171-15.171-15.171a1.365 1.365 0 1 0 0 2.732c6.858 0 12.438 5.435 12.438 12.293S80.362 52 73.504 52h-3.14c-.755 0-1.366.245-1.366 1s.611 1 1.366 1h3.14c.067 0 .135.502.202.502.018 0 .032.267.051.267 6.173 0 11.194 5.149 11.194 11.321 0 6.171-5.021 11.256-11.194 11.256-1.644 0-3.223-.314-4.697-.999-.683-.32-1.495-.004-1.814.681a1.375 1.375 0 0 0 .665 1.822 13.78 13.78 0 0 0 5.847 1.288c7.68 0 13.927-6.244 13.927-13.923-.001-5.532-3.252-10.305-7.938-12.55z"></path>
    </g>
</svg>
