<svg xmlns="http://www.w3.org/2000/svg" viewBox="0 0 130 100">
    <defs>
        <linearGradient gradientTransform="rotate(25)"
                        id="fc60bdde-249c-47cc-b276-f66f6ca4ceef" x1="0%" y1="0%" x2="100%" y2="0%">
            <stop  offset="0%"
                  style="stop-color: rgb(167, 205, 220); stop-opacity: 1;"></stop>
            <stop  offset="100%"
                  style="stop-color: rgb(111, 125, 141); stop-opacity: 1;"></stop>
        </linearGradient>
    </defs>
    <g id="78680e5a-20de-4063-b5ec-5a7b31e24bbd"
       transform="matrix(1.352854609489441,0,0,1.352854609489441,-8.853249549865723,-20.447723388671875)"
       stroke="none" fill="url(#fc60bdde-249c-47cc-b276-f66f6ca4ceef)">
        <path d="M11.995 55.024H7.947a1.366 1.366 0 1 1 0-2.732h4.047a1.366 1.366 0 0 1 .001 2.732zM25.137 49.111H21.38a1.365 1.365 0 1 1 0-2.732h3.757a1.365 1.365 0 1 1 0 2.732zM41.362 49.111H29.355a1.365 1.365 0 1 1 0-2.732h12.007a1.365 1.365 0 1 1 0 2.732zM55.499 49.111H45.314a1.367 1.367 0 0 1 0-2.732h10.185c7.776 0 14.103-6.328 14.103-14.104s-6.326-14.104-14.103-14.104c-7.778 0-14.105 6.327-14.105 14.104a1.365 1.365 0 1 1-2.732 0c0-9.284 7.554-16.836 16.837-16.836 9.282 0 16.835 7.552 16.835 16.836 0 9.285-7.553 16.836-16.835 16.836zM37.104 61.137h-3.611a1.365 1.365 0 1 1 0-2.732h3.611a1.365 1.365 0 1 1 0 2.732zM49.164 61.137H41.42a1.365 1.365 0 1 1 0-2.732h7.744a1.367 1.367 0 1 1 0 2.732zM57 81.965c-6.396 0-11.601-5.284-11.601-11.78a1.365 1.365 0 1 1 2.732 0c0 4.989 3.979 9.048 8.869 9.048s8.869-4.059 8.869-9.048-3.978-9.048-8.869-9.048h-3.63a1.365 1.365 0 1 1 0-2.732H57c6.396 0 11.601 5.285 11.601 11.78 0 6.496-5.205 11.78-11.601 11.78zM66.436 55.024H51.104c-.756 0-1.366-.611-1.366-1.366s.61-1.366 1.366-1.366h15.332a1.365 1.365 0 1 1 0 2.732zM46.765 55.024H30.928a1.367 1.367 0 0 1 0-2.732h15.837a1.365 1.365 0 1 1 0 2.732zM26.41 55.024H16.351a1.365 1.365 0 1 1 0-2.732H26.41a1.365 1.365 0 1 1 0 2.732z"></path>
        <path d="M59.698 41.219a1.364 1.364 0 0 1-1.365-1.366 15.1 15.1 0 0 1 7.11-12.854 1.367 1.367 0 0 1 1.454 2.314 12.38 12.38 0 0 0-5.833 10.541c0 .754-.61 1.365-1.366 1.365zM62.945 73.974c-.467 0-.92-.239-1.176-.669a13.903 13.903 0 0 1-1.938-7.088 1.365 1.365 0 1 1 2.731 0c0 2.01.538 3.978 1.558 5.692a1.368 1.368 0 0 1-1.175 2.065zM79.747 53.665c5.257-2.386 8.928-7.672 8.928-13.812 0-8.366-6.805-15.171-15.171-15.171a1.365 1.365 0 1 0 0 2.732c6.858 0 12.438 5.435 12.438 12.293S80.362 52 73.504 52h-3.14c-.755 0-1.366.245-1.366 1s.611 1 1.366 1h3.14c.067 0 .135.502.202.502.018 0 .032.267.051.267 6.173 0 11.194 5.149 11.194 11.321 0 6.171-5.021 11.256-11.194 11.256-1.644 0-3.223-.314-4.697-.999-.683-.32-1.495-.004-1.814.681a1.375 1.375 0 0 0 .665 1.822 13.78 13.78 0 0 0 5.847 1.288c7.68 0 13.927-6.244 13.927-13.923-.001-5.532-3.252-10.305-7.938-12.55z"></path>
    </g>
</svg>
